<svg id="Layer_1" xmlns="http://www.w3.org/2000/svg" viewBox="0 0 923.1 691.2"><style>.st0{fill:#ccd6d6}.st5{fill:none;stroke:#fff;stroke-miterlimit:10}.st7{fill:#e4e4e4}.st8{fill:#8e8e8e}.st9{fill:#fff}.st10{fill:#fdb913}.st11{fill:#e89010}.st13{fill:#7d7c8f}.st14{fill:#575667}.st15{fill:#333340}.st18{fill:#bcbcbc}.st22{fill:#ffd16c}.st26{fill:#ffde9c}.st31{fill:#5b2418}.st58,.st59{opacity:.19;fill:#5b5b5b}.st59{opacity:.16}.st66{opacity:.18;fill:#222223}.st67{fill:#353b44}</style><path class="st0" d="M542.4 502.5L335.2 390.3c-12.7-6.9-27.3-8.7-41.3-5.1l-30.8 7.8c-17.5 4.5-35.9 2.2-51.9-6.3l-213-114.1 9.9-18.5 213 114.1c11.3 6 24.4 7.6 36.8 4.5l30.8-7.8c19.1-4.9 39.2-2.4 56.5 7L552.4 484l-10 18.5z"/><linearGradient id="SVGID_1_" gradientUnits="userSpaceOnUse" x1="117.535" y1="326.754" x2="54.368" y2="290.659"><stop offset="0" stop-color="#ccd6d6"/><stop offset="1" stop-color="#fff"/></linearGradient><path fill="url(#SVGID_1_)" d="M109.7 332.4l22.4-11.9L7.9 253.8l-10.1 19.1z"/><path class="st0" d="M227.7 676l-9.9-18.5 322.5-172.3 58.4-82.9 91.6-48.8c19.5-10.4 30.5-32.1 27.3-54-2.4-16.5-12.7-30.8-27.6-38.2l-.1-.1-459.2-240 9.7-18.6 459.1 239.9c20.9 10.6 35.5 30.7 38.9 53.9 4.5 30.7-10.9 61-38.2 75.6L613 418.5l-58.4 82.9L227.7 676z"/><linearGradient id="SVGID_2_" gradientUnits="userSpaceOnUse" x1="362.369" y1="80.447" x2="253.875" y2="20.472"><stop offset="0" stop-color="#ccd6d6"/><stop offset="1" stop-color="#fff"/></linearGradient><path fill="url(#SVGID_2_)" d="M373.5 72.3L240.3 2.4l-9.9 19.4L351 84.2z"/><linearGradient id="SVGID_3_" gradientUnits="userSpaceOnUse" x1="303.658" y1="625.643" x2="247.292" y2="652.316"><stop offset="0" stop-color="#ccd6d6"/><stop offset="1" stop-color="#fff"/></linearGradient><path fill="url(#SVGID_3_)" d="M307.7 609.3l-90.3 48.3 9.9 18.6 102.9-55z"/><path d="M538.4 487.9L340 380.5c-15.1-8.2-32.6-10.3-49.3-6.1l-30.8 7.8c-14.8 3.8-30.5 1.9-44-5.3L11.8 267.5" fill="none" stroke="#fff" stroke-miterlimit="10" stroke-dasharray="7,9"/><path class="st5" d="M231.4 662.3l3.1-1.6"/><path d="M242.5 656.4l304.9-162.9 58.4-82.9 89.3-47.5c23.6-12.6 36.9-38.8 33-65.3-2.9-20-15.4-37.3-33.5-46.4l-.1-.1L251.3 19.7" fill="none" stroke="#fff" stroke-miterlimit="10" stroke-dasharray="7.0373,9.048"/><path class="st5" d="M247.3 17.6l-3.1-1.6"/><path class="st7" d="M208.4 263.8l85.8-45.7-86.1-45-86.1 44.4z"/><path class="st7" d="M208.4 243.5l84.7-45.3-85-44.3-85 44z"/><path transform="rotate(-61.933 165.726 220.758)" class="st8" d="M164.4 172.7h2.6v96.1h-2.6z"/><path transform="rotate(-28.067 250.503 221.328)" class="st8" d="M202.5 220h96.1v2.6h-96.1z"/><path class="st8" d="M265.9 101.3h-2.6V75.2l2.6 1.4zM180.4 88h-2.7V63.6l2.7-1.4zm-27.5 13.5h-2.6V78.1l2.6-1.5z"/><path class="st7" d="M208.8 221.8l85.8-45.7-86-44.9-86.1 44.4z"/><path class="st7" d="M208.4 160.8l84.7-45.4-85-44.2-85 44z"/><path class="st7" d="M208.4 202.9l85.8-45.7-86.1-44.9-86.1 44.4z"/><path class="st7" d="M208.4 182.7l84.7-45.4-85-44.2-85 44z"/><path class="st8" d="M294.2 157.2l-2.6 1.4V92l2.6-.9zm-87.4-21.4h2.6v67.1h-2.6zm-82.1 22.3l-2.7-1.4V90.5l2.7.9zm56.5 30.3l-2.7-1.4v-67l2.7 2.3z"/><path transform="rotate(-61.933 165.5 137.888)" class="st8" d="M164.2 89.9h2.6V186h-2.6z"/><path transform="rotate(-61.933 165.722 159.924)" class="st8" d="M164.4 111.9h2.6V208h-2.6z"/><path transform="rotate(-61.933 165.5 113.813)" class="st8" d="M164.2 65.8h2.6v96.1h-2.6z"/><path class="st8" d="M292.2 93l-46.1-24.9 3-1.4 45.1 24.4z"/><path class="st9" d="M252.7 144.7l-8.1-4.3 2.5-1.2 8.1 4.3zm-94.1-22.5l-12.4-6.6 2.6-1.2 12.4 6.6zm39 43.7l-12.4-6.6 2.5-1.2 12.4 6.6z"/><path class="st8" d="M152.9 173.2l-2.6-1.4v-66.6l2.6 1.6z"/><path class="st9" d="M219.2 138.7l-8.1-4.5 2.5-1.2 8.2 4.4zm-18.4-20.9l-11.8-6.1 2.5-1.2 11.8 6.1z"/><path transform="rotate(-28.067 250.498 113.813)" class="st8" d="M202.5 112.5h96.1v2.6h-96.1z"/><path transform="rotate(-28.067 250.386 138.073)" class="st8" d="M202.4 136.8h96.1v2.6h-96.1z"/><path class="st8" d="M265.9 172.4l-2.6 1.3v-66.2l2.6-1.3zM123.7 92.8l-1.7-2.3 79.5-42.2 2.9 1.4z"/><path class="st9" d="M168.7 173.7l-12.4-6.6 2.5-1.2 12.4 6.6zm73.9 0l-7.5-4.3 2.5-1.2 7.5 4.3z"/><path transform="rotate(-28.067 250.498 160.49)" class="st8" d="M202.5 159.2h96.1v2.6h-96.1z"/><path class="st8" d="M237.7 188h-2.6v-65.7l2.6-1.3z"/><path transform="rotate(-61.933 221.973 84.74)" class="st8" d="M220.7 36.7h2.6v96.1h-2.6z"/><path transform="rotate(-61.933 193.368 99.577)" class="st8" d="M192.1 51.5h2.6v96.1h-2.6z"/><path class="st8" d="M180.1 123.9l-1.2-2.3L225 97l2.7 1.4zm-55.4 95l-2.7-1.4v-66.2l2.7.9zm169.5-.8l-2.6 1.4v-66.6l2.6-.9z"/><path transform="rotate(-28.067 250.386 180.357)" class="st8" d="M202.4 179h96.1v2.6h-96.1z"/><path transform="rotate(-61.933 165.552 179.895)" class="st8" d="M164.3 131.9h2.6V228h-2.6z"/><path class="st9" d="M208.2 90.1l-12.4-6.7 2.6-1.2 12.4 6.6z"/><path class="st8" d="M152.2 108.5l-1.2-2.3 68.3-36.5 2.7 1.5zm29 140.7l-2.6-1.4v-66.9l2.6 2.3z"/><path transform="rotate(-61.933 165.503 198.722)" class="st8" d="M164.2 150.7h2.6v96.1h-2.6z"/><path class="st8" d="M265.9 233.2l-2.6 1.3v-66.2l2.6-1.3zm-28.2 15.6h-2.6v-65.7l2.6-1.2zm-30.9-52.1h2.6v67.1h-2.6z"/><path class="st10" d="M294.2 299.3l-86.6 45.8.7-81.9 26.7-14.3v-21.1l59.4-31.7z"/><path class="st11" d="M220.3 273.3l6.7-3.3v11.5l-6.7 3.4z"/><path class="st9" d="M259.5 202.9l-8.7-4.8 2.6-1.3 8.6 4.9zm-63.3 27.3l-12.4-6.6 2.5-1.2 12.4 6.6zm-39.4-3.4l-12.4-6.6 2.6-1.2 12.4 6.6z"/><path class="st8" d="M152.9 234l-2.6-1.3V166l2.6 1.6z"/><path class="st11" d="M207.8 345l-85.7-46.7-.1-80.8 86.3 45.6z"/><path transform="rotate(-28.067 250.391 198.91)" class="st8" d="M202.4 197.6h96.1v2.6h-96.1z"/><linearGradient id="SVGID_4_" gradientUnits="userSpaceOnUse" x1="173.155" y1="75.602" x2="309.219" y2="366.918"><stop offset="0" stop-color="#1d1d1b"/><stop offset="1" stop-color="#1d1d1b" stop-opacity="0"/></linearGradient><path opacity=".44" fill="url(#SVGID_4_)" d="M207.7 344.9l96.7 49.5 87.7-45.2-97.7-50z"/><path class="st11" d="M278.7 239.8l6.7-3.3v11.4l-6.7 3.5zm-58.8 72.9l6.7-3.3v11.5l-6.7 3.4z"/><path class="st13" d="M140.5 386.6l43-23.2-60.5-32.5L79.4 354z"/><path class="st14" d="M140.5 386.6v41.9l43-23v-42.1z"/><path class="st15" d="M79.4 354v41.1l61.1 33.4v-41.9zm90 43.9l3.9-2v7.1l-3.9 2.1zm-22.3-4.5l3.9-2.1v7.1l-3.9 2.1z"/><linearGradient id="SVGID_5_" gradientUnits="userSpaceOnUse" x1="134.139" y1="305.515" x2="193.929" y2="439.01"><stop offset="0" stop-color="#1d1d1b"/><stop offset="1" stop-color="#1d1d1b" stop-opacity="0"/></linearGradient><path opacity=".44" fill="url(#SVGID_5_)" d="M140.5 428.5l50.8 29.9 49.8-23-57.6-29.9z"/><linearGradient id="SVGID_6_" gradientUnits="userSpaceOnUse" x1="369.874" y1="70.582" x2="496.488" y2="353.282"><stop offset="0" stop-color="#1d1d1b"/><stop offset="1" stop-color="#1d1d1b" stop-opacity="0"/></linearGradient><path opacity=".44" fill="url(#SVGID_6_)" d="M391.8 324.8l116 62 78.1-39.1L457.2 290z"/><path class="st7" d="M391.9 163.8l65.4-34.9-50.3-26.2-64.1 34.9z"/><path class="st18" d="M391.9 163.8l-.1 161 65.4-34.8.1-161.1z"/><path class="st8" d="M342.9 137.6v160.6l48.9 26.6.1-161zm66.2 71.1l4.2-2.1v8l-4.2 2.3zm23.1 67.2l4.1-2.2v8.1l-4.1 2.2zm13.6-115.1l4.1-2.1v8l-4.1 2.3zm-13.6 72.6l4.1-2.2v8.1l-4.1 2.2z"/><linearGradient id="SVGID_7_" gradientUnits="userSpaceOnUse" x1="622.802" y1="149.913" x2="732.5" y2="387.217"><stop offset="0" stop-color="#1d1d1b"/><stop offset="1" stop-color="#1d1d1b" stop-opacity="0"/></linearGradient><path opacity=".44" fill="url(#SVGID_7_)" d="M638.2 350.1l115.4 50.8 46.9-33.5-110.2-44.2z"/><path class="st7" d="M638.2 123.1l52.1-28.2-73.4-39.5L564 83.5z"/><path class="st18" d="M638.2 123.1v227l52.1-26.9V94.9z"/><path class="st8" d="M564 83.5l-1.6 226.1 75.8 40.5v-227zm84.9 49.3l5.4-2.8v9.6l-5.4 2.9zm27.2 42.6l5.3-2.8v9.7l-5.3 2.9zm2.6 122.3l5.4-2.7v9.6l-5.4 2.9zm-12.1-36.2l5.3-2.8v9.7l-5.3 2.8z"/><linearGradient id="SVGID_8_" gradientUnits="userSpaceOnUse" x1="250.063" y1="252.177" x2="406.063" y2="586.177"><stop offset="0" stop-color="#1d1d1b"/><stop offset="1" stop-color="#1d1d1b" stop-opacity="0"/></linearGradient><path opacity=".44" fill="url(#SVGID_8_)" d="M291.4 560.4L402 617.1l97.2-51.2-107.9-57.7-2.7.5-94.2 51.1v.6z"/><path class="st7" d="M293.2 512.2l96.8-51.8-97.1-50.6-97.1 50.3z"/><path class="st7" d="M293.2 560.4l98.1-52.2-98.4-51.4-98.4 50.8z"/><path class="st7" d="M293.2 537.3l96.8-51.9-97.1-50.5-97.1 50.2z"/><path class="st7" d="M293 484.9l96.8-51.9-97.1-50.6-97.2 50.3z"/><path class="st8" d="M391.3 508.2l-3 1.6v-93.1l3-1.5zm-96.9 52.2h-3V458.9l3-1.2zm-96.9-51.3l-3-1.5V407.1l3 1.6zm64.6 34.6l-3-1.6V441.5l3 1.8z"/><path transform="rotate(-61.933 244.197 486.052)" class="st8" d="M242.7 431.2h3V541h-3z"/><path transform="rotate(-61.933 244.45 511.24)" class="st8" d="M243 456.4h3v109.8h-3z"/><path transform="rotate(-61.933 244.197 458.534)" class="st8" d="M242.7 403.6h3v109.8h-3z"/><path class="st8" d="M359 416.8h-3v-20.4l3 1.6zm-32.3-16.7h-3v-19.7l3 1.7zm-96.9 15.1h-3v-17.6l3-1.7zm32.3-15.9h-3v-17.7l3-1.6z"/><path transform="rotate(-61.933 341.274 407.603)" class="st8" d="M339.8 352.7h3v109.8h-3z"/><path class="st9" d="M343.5 427.6l-14.2-7.5 2.9-1.4 14.2 7.5zm-93.4 25.3l-14.2-7.6 2.9-1.3 14.2 7.5zm-12.7-27.1l-14.2-7.6 2.9-1.4 14.2 7.6zm106.4 68l-9.2-4.8 2.9-1.4 9.2 4.8zm-107.5-25.7l-14.1-7.5 2.9-1.4 14.1 7.5zm44.6 50l-14.2-7.5 2.9-1.4 14.2 7.5z"/><path class="st8" d="M229.8 526.4l-3-1.5V424.5l3 1.4z"/><path class="st9" d="M268.3 421.3l-14.2-7.6 2.9-1.3 14.2 7.5zm37.3 65.6l-9.3-5 2.9-1.4 9.3 5.1zm45.3-33.6l-10.5-5.5 2.9-1.4 10.5 5.5z"/><path transform="rotate(-28.067 341.362 458.548)" class="st8" d="M286.5 457h109.8v3H286.5z"/><path transform="rotate(-28.067 341.234 486.277)" class="st8" d="M286.3 484.8h109.8v3H286.3z"/><linearGradient id="SVGID_9_" gradientUnits="userSpaceOnUse" x1="296.502" y1="391.666" x2="328.502" y2="462.666"><stop offset="0" stop-color="#1d1d1b"/><stop offset="1" stop-color="#1d1d1b" stop-opacity="0"/></linearGradient><path opacity=".44" fill="url(#SVGID_9_)" d="M291.5 450.8l30.7 16.1 32.2-17.1-32.4-15.6-9.2 5.3-5.4-2.9-6.3 3.3v5.6z"/><path class="st8" d="M359 525.5l-3 1.5v-92.7l3-1.5z"/><path transform="rotate(-28.067 244.22 407.373)" class="st8" d="M189.3 405.9h109.8v3H189.3z"/><path class="st22" d="M293.7 370.6l28.5 14.7-9.4 5-5.4-2.9-11.9 6 5.6 3-9.5 5.2-28-15.1 9.4-4.9 5.2 2.7 11.5-6.2-5.2-2.7z"/><path class="st10" d="M312.8 390.3v49.2l9.2-5.3.2-48.9zm-11.7 6.1v49.1l-9.6 5.3.1-49.2z"/><path class="st11" d="M263.6 386.5l28 15.1-.1 49.2-27.9-14.6zm43.8.9v49.2l5.4 2.9v-49.2z"/><path class="st10" d="M307.4 387.4l-11.9 6 5.6 3v43.5l6.3-3.3z"/><path class="st11" d="M284.5 375.4v5.5l5.2-2.8z"/><path class="st9" d="M247.9 527l-14.2-7.6 2.9-1.3 14.2 7.5zM332.4 527l-8.6-4.9 2.9-1.4 8.5 4.9z"/><path transform="rotate(-28.067 341.362 511.901)" class="st8" d="M286.5 510.4h109.8v3H286.5z"/><path class="st8" d="M326.7 543.3h-3v-92.1l3-1.4zM293.1 460.3l-98.6-53.2v-2.7l100 53.3z"/><linearGradient id="SVGID_10_" gradientUnits="userSpaceOnUse" x1="338.154" y1="256.818" x2="604.996" y2="470.058"><stop offset="0" stop-color="#1d1d1b"/><stop offset="1" stop-color="#1d1d1b" stop-opacity="0"/></linearGradient><path opacity=".44" fill="url(#SVGID_10_)" d="M511.8 431l109.5 57.6 21.1-24.1-101.9-49.6z"/><linearGradient id="SVGID_11_" gradientUnits="userSpaceOnUse" x1="524.76" y1="283.111" x2="525.645" y2="203.073"><stop offset="0" stop-color="#fdb913"/><stop offset="1" stop-color="#e89010"/></linearGradient><path fill="url(#SVGID_11_)" d="M518.4 222.1V379l12.4-6.9V217z"/><path class="st22" d="M511.8 397.4l-20.4-10.9 9.2-16.8 17.8 9.3z"/><path class="st11" d="M491.4 386.5v33.7l20.4 10.9v-33.7z"/><linearGradient id="SVGID_12_" gradientUnits="userSpaceOnUse" x1="506.352" y1="205.329" x2="508.71" y2="273.722"><stop offset="0" stop-color="#d3710f"/><stop offset="1" stop-color="#e89010"/></linearGradient><path fill="url(#SVGID_12_)" d="M500.6 369.7V228.5l17.8-6.4V379z"/><path class="st10" d="M626 169.7L300.6 343.6l-.6-9.4 212.8-126.5 11.8-6.4L626 162.7z"/><path class="st11" d="M288.8 328.3l11.2 5.9.8 2.2-.2 7.2-12.5-6.7v-7.3z"/><path class="st22" d="M518.6 193l96.4-36.6 11 6.3-101.4 38.6z"/><path class="st10" d="M512.8 207.7l-.1-39 11.2-6 .7 38.6z"/><path class="st11" d="M512.7 168.7l-11.8-5.5.1 38.7 11.8 5.8z"/><path class="st22" d="M500.9 163.2l11.8 5.5 11.2-6-11.1-5.5zm10.3-9l-4.8-2.7 7.7-4 4.9 2.7z"/><path class="st10" d="M519 150.2v10.9l-7.8 4.1v-11z"/><path class="st11" d="M506.4 151.5l4.8 2.7v11l-4.9-2.6z"/><path class="st22" d="M501 201.9l11.8 5.8L300 334.2l-11.2-5.9zm125-39.2l-101.4 38.6-11.8 6.4L300 334.2l.8 2.2 213.1-125.9 14.7-8.1 97.4-37.2z"/><path class="st26" d="M596.5 180.4l-6.6-3.4 18.6-10.1 6.7 3.5z"/><path class="st10" d="M615.2 170.4v24.9l-18.7 10.2v-25.1z"/><path class="st11" d="M589.9 177l6.6 3.4v25.1l-6.8-3.6z"/><path class="st10" d="M518.4 379s-6.6 17.3-6.6 18.4v33.7l28.7-16.2V382l-9.6-9.9-12.5 6.9z"/><path class="st11" d="M610.3 173v24.9l-1 .6v-25zm-7 3.8v25l-1.1.5v-24.9z"/><path d="M518.4 379v-2l12.4-7v2.1zm0-120v-2.1l12.4-6.9v2.1zm0 30v-2.1l12.4-6.9v2.1zm0 30v-2.1l12.4-6.9v2.1zm0 30v-2.1l12.4-6.9v2.1zm-123.9-68l1.9-1.1 12.2 5.9-2 1.1zm160.9-88.8l2.3-.9 14.7 7.1-1.9 1zm-57.9 28l1.9-1.2 17.9 8.8-1.9 1zm-53.2 31.4l1.9-1.1 15.1 7.2-2 1.1zm-114.9 67.9l1.9-1.1 8.7 4.1-2 1.1z" fill="#ffe79c"/><path class="st8" d="M329.5 437.6l-3.8-1.9 58.5-29.3 3.3 1.9z"/><path fill="#d8bf9e" d="M364.8 417.6l-2.3 1.1V314.5h2.3z"/><path class="st26" d="M360.9 302.9l-9-5 14.3-7.4 9.1 4.9z"/><path class="st10" d="M375.3 295.4v20.3l-14.4 7.6v-20.4z"/><path class="st11" d="M351.9 297.9l9 5v20.4l-9.1-4.8z"/><g><path class="st13" d="M634.8 379.9l100.6-53.8 58.7 30.7-71 37.9-31.7-16.9-30.4 16z"/><path class="st14" d="M723.1 394.7v94.7l71-38.3v-94.3z"/><path class="st15" d="M723.1 489.4L691.4 474v-96.2l31.7 16.9zm-88.3-109.5v95.3l26 13.8.2-95.2z"/><path class="st14" d="M661 393.8l30.4-16V474l-30.6 15zm94.2-44.1l11.1 5.9-24.2 12.9-11.2-5.7z"/><path class="st15" d="M737.8 453l5.4-2.9v9.8l-5.4 2.9zm34.6-33.4l5.4-2.8v9.7l-5.4 2.9zm0-31.6l5.4-2.8v9.7l-5.4 2.9z"/></g><linearGradient id="SVGID_13_" gradientUnits="userSpaceOnUse" x1="659.534" y1="228.096" x2="799.287" y2="530.418"><stop offset="0" stop-color="#1d1d1b"/><stop offset="1" stop-color="#1d1d1b" stop-opacity="0"/></linearGradient><path opacity=".44" fill="url(#SVGID_13_)" d="M660.9 488.8l138.6 71.3L906 503.5 794.2 451l-71 38.3-31.7-15.5z"/><g><path class="st18" d="M792.2 145.6l48.7-26.2v158.7L792.2 304z"/><path class="st8" d="M792.2 304l-37.1-42.2V103.4l37.1 42.2z"/><path class="st7" d="M755.1 103.4l85.8 16-48.7 26.2z"/><path class="st8" d="M816.2 228.2l4-2.1v7.7l-4 2.2zm0-81.8l4-2.1v7.7l-4 2.2zm15 112.8l4-2.1v7.7l-4 2.2z"/><linearGradient id="SVGID_14_" gradientUnits="userSpaceOnUse" x1="765.668" y1="74.967" x2="881.668" y2="333.967"><stop offset="0" stop-color="#1d1d1b"/><stop offset="1" stop-color="#1d1d1b" stop-opacity="0"/></linearGradient><path opacity=".44" fill="url(#SVGID_14_)" d="M792.2 304l114.4 54.2 46.9-33.5-112.6-46.6z"/></g><g><path class="st31" d="M610.6 358.5l-2.5 1.4v-13.7h2.5z"/><linearGradient id="SVGID_15_" gradientUnits="userSpaceOnUse" x1="607.83" y1="305.442" x2="609.674" y2="349.703"><stop offset="0" stop-color="#e8f752"/><stop offset="1" stop-color="#70b222"/></linearGradient><path d="M606.9 308c-3.1 1.2-4.4 4.8-5 8.1-.9 5.6.1 11.2.3 16.8.1 3.6-.7 7.5.5 11 1.3 3.9 5.7 5.6 9.2 3.2 1.9-1.3 2.8-3.7 3.1-5.9.4-3.2-.9-6.4-.8-9.7.1-2.3.4-4.6.8-6.8.7-4.7 1-11.3-2.1-15.2-1-1.3-2.4-1.9-4-1.9-.7 0-1.4.1-2 .4z" fill="url(#SVGID_15_)"/><linearGradient id="SVGID_16_" gradientUnits="userSpaceOnUse" x1="604.375" y1="338.316" x2="615.641" y2="363.47"><stop offset="0" stop-color="#1d1d1b"/><stop offset="1" stop-color="#1d1d1b" stop-opacity="0"/></linearGradient><path opacity=".44" fill="url(#SVGID_16_)" d="M608.1 359.9l10.4 5.7 3.2-1.9-11.1-5.2z"/></g><g><path class="st31" d="M674.4 566.2l-2.7 1.3v-13.3h2.7z"/><linearGradient id="SVGID_17_" gradientUnits="userSpaceOnUse" x1="671.966" y1="517.501" x2="673.708" y2="559.315"><stop offset="0" stop-color="#e8f752"/><stop offset="1" stop-color="#70b222"/></linearGradient><path d="M670.8 519.9c-3.4 1.2-4.9 4.6-5.5 7.6-1 5.2.2 10.6.3 15.9.1 3.4-.7 7.1.6 10.4 1.4 3.6 6.4 5.3 10.3 3 2.1-1.3 3.2-3.5 3.5-5.6.4-3-1-6.1-.9-9.1.1-2.2.5-4.3.9-6.5.8-4.4 1.1-10.7-2.4-14.3-1.1-1.2-2.7-1.8-4.5-1.8-.9 0-1.7.2-2.3.4z" fill="url(#SVGID_17_)"/><linearGradient id="SVGID_18_" gradientUnits="userSpaceOnUse" x1="668.016" y1="545.945" x2="679.282" y2="571.099"><stop offset="0" stop-color="#1d1d1b"/><stop offset="1" stop-color="#1d1d1b" stop-opacity="0"/></linearGradient><path opacity=".44" fill="url(#SVGID_18_)" d="M671.7 567.5l10.5 5.7 3.2-1.9-11.2-5.1z"/></g><g><path class="st31" d="M175.4 537.6l-2.7 1.3v-13.3h2.7z"/><linearGradient id="SVGID_19_" gradientUnits="userSpaceOnUse" x1="173.001" y1="488.9" x2="174.744" y2="530.714"><stop offset="0" stop-color="#e8f752"/><stop offset="1" stop-color="#70b222"/></linearGradient><path d="M171.8 491.3c-3.4 1.2-4.9 4.6-5.5 7.6-1 5.2.2 10.6.3 15.9.1 3.4-.7 7.1.6 10.4 1.4 3.6 6.4 5.3 10.3 3 2.1-1.3 3.2-3.5 3.5-5.6.4-3-1-6.1-.9-9.1.1-2.2.5-4.3.9-6.5.8-4.4 1.1-10.7-2.4-14.3-1.1-1.2-2.7-1.8-4.5-1.8-.9 0-1.6.2-2.3.4z" fill="url(#SVGID_19_)"/><linearGradient id="SVGID_20_" gradientUnits="userSpaceOnUse" x1="169.051" y1="517.344" x2="180.317" y2="542.498"><stop offset="0" stop-color="#1d1d1b"/><stop offset="1" stop-color="#1d1d1b" stop-opacity="0"/></linearGradient><path opacity=".44" fill="url(#SVGID_20_)" d="M172.7 538.9l10.5 5.7 3.2-1.9-11.1-5.1z"/></g><g><path class="st31" d="M825.3 352.2l-2.7 1.4v-13.3h2.7z"/><linearGradient id="SVGID_21_" gradientUnits="userSpaceOnUse" x1="822.919" y1="303.583" x2="824.661" y2="345.397"><stop offset="0" stop-color="#e8f752"/><stop offset="1" stop-color="#70b222"/></linearGradient><path d="M821.7 306c-3.4 1.2-4.9 4.6-5.5 7.6-1 5.2.2 10.6.3 15.9.1 3.4-.7 7.1.6 10.4 1.4 3.6 6.4 5.3 10.3 3 2.1-1.3 3.2-3.5 3.5-5.6.4-3-1-6.1-.9-9.1.1-2.2.5-4.3.9-6.5.8-4.4 1.1-10.7-2.4-14.3-1.1-1.2-2.7-1.8-4.5-1.8-.8 0-1.6.2-2.3.4z" fill="url(#SVGID_21_)"/><linearGradient id="SVGID_22_" gradientUnits="userSpaceOnUse" x1="818.968" y1="332.027" x2="830.234" y2="357.181"><stop offset="0" stop-color="#1d1d1b"/><stop offset="1" stop-color="#1d1d1b" stop-opacity="0"/></linearGradient><path opacity=".44" fill="url(#SVGID_22_)" d="M822.6 353.6l10.5 5.7 3.2-1.9-11.1-5.2z"/></g><g><path class="st31" d="M48.3 433.7l-2.7 1.4v-13.4h2.7z"/><linearGradient id="SVGID_23_" gradientUnits="userSpaceOnUse" x1="45.885" y1="385.019" x2="47.627" y2="426.833"><stop offset="0" stop-color="#e8f752"/><stop offset="1" stop-color="#70b222"/></linearGradient><path d="M44.7 387.4c-3.4 1.2-4.9 4.6-5.5 7.6-1 5.2.2 10.6.3 15.9.1 3.4-.7 7.1.6 10.4 1.4 3.6 6.4 5.3 10.3 3 2.1-1.3 3.2-3.5 3.5-5.6.4-3-1-6.1-.9-9.1.1-2.2.5-4.3.9-6.5.8-4.4 1.1-10.7-2.4-14.3-1.1-1.2-2.7-1.8-4.5-1.8-.9 0-1.6.2-2.3.4z" fill="url(#SVGID_23_)"/><linearGradient id="SVGID_24_" gradientUnits="userSpaceOnUse" x1="41.934" y1="413.463" x2="53.2" y2="438.617"><stop offset="0" stop-color="#1d1d1b"/><stop offset="1" stop-color="#1d1d1b" stop-opacity="0"/></linearGradient><path opacity=".44" fill="url(#SVGID_24_)" d="M45.6 435l10.5 5.8 3.2-1.9-11.1-5.2z"/></g><g><path class="st31" d="M111.7 445.4l-2.7 1.3v-13.3h2.7z"/><linearGradient id="SVGID_25_" gradientUnits="userSpaceOnUse" x1="109.309" y1="396.703" x2="111.052" y2="438.517"><stop offset="0" stop-color="#e8f752"/><stop offset="1" stop-color="#70b222"/></linearGradient><path d="M108.1 399.1c-3.4 1.2-4.9 4.6-5.5 7.6-1 5.2.2 10.6.3 15.9.1 3.4-.7 7.1.6 10.4 1.4 3.6 6.4 5.3 10.3 3 2.1-1.3 3.2-3.5 3.5-5.6.4-3-1-6.1-.9-9.1.1-2.2.5-4.3.9-6.5.8-4.4 1.1-10.7-2.4-14.3-1.1-1.2-2.7-1.8-4.5-1.8-.8 0-1.6.2-2.3.4z" fill="url(#SVGID_25_)"/><linearGradient id="SVGID_26_" gradientUnits="userSpaceOnUse" x1="105.359" y1="425.147" x2="116.625" y2="450.301"><stop offset="0" stop-color="#1d1d1b"/><stop offset="1" stop-color="#1d1d1b" stop-opacity="0"/></linearGradient><path opacity=".44" fill="url(#SVGID_26_)" d="M109 446.7l10.5 5.7 3.2-1.9-11.1-5.1z"/></g><g><path class="st31" d="M400.4 646l-2.5 1.4v-13.7h2.5z"/><linearGradient id="SVGID_27_" gradientUnits="userSpaceOnUse" x1="397.65" y1="592.929" x2="399.495" y2="637.19"><stop offset="0" stop-color="#e8f752"/><stop offset="1" stop-color="#70b222"/></linearGradient><path d="M396.7 595.5c-3.1 1.2-4.4 4.8-5 8.1-.9 5.6.1 11.2.3 16.8.1 3.6-.7 7.5.5 11 1.3 3.9 5.7 5.6 9.2 3.2 1.9-1.3 2.8-3.7 3.1-5.9.4-3.2-.9-6.4-.8-9.7.1-2.3.4-4.6.8-6.8.7-4.7 1-11.3-2.1-15.2-1-1.3-2.4-1.9-4-1.9-.7 0-1.4.1-2 .4z" fill="url(#SVGID_27_)"/><linearGradient id="SVGID_28_" gradientUnits="userSpaceOnUse" x1="394.196" y1="625.803" x2="405.462" y2="650.957"><stop offset="0" stop-color="#1d1d1b"/><stop offset="1" stop-color="#1d1d1b" stop-opacity="0"/></linearGradient><path opacity=".44" fill="url(#SVGID_28_)" d="M397.9 647.4l10.5 5.7 3.2-1.9-11.2-5.2z"/></g><g><path class="st31" d="M423.5 617.1l-2.6 1.4v-13.7h2.6z"/><linearGradient id="SVGID_29_" gradientUnits="userSpaceOnUse" x1="420.709" y1="564.044" x2="422.554" y2="608.304"><stop offset="0" stop-color="#e8f752"/><stop offset="1" stop-color="#70b222"/></linearGradient><path d="M419.8 566.6c-3.1 1.2-4.4 4.8-5 8.1-.9 5.6.1 11.2.3 16.8.1 3.6-.7 7.5.5 11 1.3 3.9 5.7 5.6 9.2 3.2 1.9-1.3 2.8-3.7 3.1-5.9.4-3.2-.9-6.4-.8-9.7.1-2.3.4-4.6.8-6.8.7-4.7 1-11.3-2.1-15.2-1-1.3-2.4-1.9-4-1.9-.7 0-1.4.1-2 .4z" fill="url(#SVGID_29_)"/><linearGradient id="SVGID_30_" gradientUnits="userSpaceOnUse" x1="417.255" y1="596.918" x2="428.521" y2="622.072"><stop offset="0" stop-color="#1d1d1b"/><stop offset="1" stop-color="#1d1d1b" stop-opacity="0"/></linearGradient><path opacity=".44" fill="url(#SVGID_30_)" d="M420.9 618.5l10.5 5.7 3.2-1.9-11.1-5.2z"/></g><g><path class="st31" d="M697.2 494.4l-2.6 1.4v-13.7h2.6z"/><linearGradient id="SVGID_31_" gradientUnits="userSpaceOnUse" x1="690.929" y1="474.209" x2="702.195" y2="499.362"><stop offset="0" stop-color="#1d1d1b"/><stop offset="1" stop-color="#1d1d1b" stop-opacity="0"/></linearGradient><path opacity=".44" fill="url(#SVGID_31_)" d="M694.6 495.8l10.5 5.7 3.2-1.9-11.1-5.2z"/><linearGradient id="SVGID_32_" gradientUnits="userSpaceOnUse" x1="694.354" y1="440.912" x2="696.192" y2="485.033"><stop offset="0" stop-color="#e8f752"/><stop offset="1" stop-color="#70b222"/></linearGradient><path d="M695.8 443c-1.6 0-3.2.5-4.4 1.2-2.7 1.4-4 4.2-4.5 7.3-.6 4 .1 8.1.5 12.1.4 3.7 0 7.5.2 11.2.1 2.6.7 5.4 2.7 7.1 4.2 3.7 11 .5 12.6-4.8.7-2.5-.3-4.9-.8-7.4-.3-1.3-.3-2.6-.2-4 .2-2.7.7-5.4 1-8 .3-2.6.5-5.2.2-7.8-.7-4.2-3.2-7-7.3-6.9z" fill="url(#SVGID_32_)"/></g><g><path class="st31" d="M579 345.8l-2.4 1.3v-12.9h2.4z"/><linearGradient id="SVGID_33_" gradientUnits="userSpaceOnUse" x1="573.106" y1="326.708" x2="583.767" y2="350.51"><stop offset="0" stop-color="#1d1d1b"/><stop offset="1" stop-color="#1d1d1b" stop-opacity="0"/></linearGradient><path opacity=".44" fill="url(#SVGID_33_)" d="M576.6 347.1l9.9 5.4 3-1.8-10.5-4.9z"/><linearGradient id="SVGID_34_" gradientUnits="userSpaceOnUse" x1="575.616" y1="283.81" x2="577.875" y2="338.018"><stop offset="0" stop-color="#e8f752"/><stop offset="1" stop-color="#70b222"/></linearGradient><path d="M576.1 286.5c-.8.1-1.5.4-2.2.7-1.3.7-2.4 1.9-3 3.3-1.5 3.5.4 6.8.8 10.3.1 1.1 0 2.3-.3 3.4-.3 1-.9 1.9-1.2 2.9-.8 2.1-.7 4.6-.2 6.8.4 1.8 1.5 3.6 1.6 5.5.1 3.6-2.3 7-1.4 10.7.5 2 1.6 3.8 3.2 5 2.6 1.8 6.2 1.3 8.6-.5 3.4-2.6 3.1-7.2 1.6-10.9-.5-1.2-.8-2.4-.8-3.7.1-2.7 1.4-5.3 1.6-8 .2-3.2-1-5.5-2-8.4-.3-.8-.5-1.7-.6-2.6 0-1 .3-1.9.5-2.8.8-3.7 1-9.3-3-11.3-1.1-.5-2.2-.6-3.2-.4z" fill="url(#SVGID_34_)"/></g><g><path class="st31" d="M319 273.7l-2.6 1.3v-13.7h2.6z"/><linearGradient id="SVGID_35_" gradientUnits="userSpaceOnUse" x1="312.728" y1="253.451" x2="323.994" y2="278.605"><stop offset="0" stop-color="#1d1d1b"/><stop offset="1" stop-color="#1d1d1b" stop-opacity="0"/></linearGradient><path opacity=".44" fill="url(#SVGID_35_)" d="M316.4 275l10.5 5.7 3.2-1.9-11.1-5.1z"/><linearGradient id="SVGID_36_" gradientUnits="userSpaceOnUse" x1="315.38" y1="208.117" x2="317.767" y2="265.403"><stop offset="0" stop-color="#e8f752"/><stop offset="1" stop-color="#70b222"/></linearGradient><path d="M315.9 210.9c-.8.1-1.6.4-2.3.8-1.4.8-2.5 2-3.2 3.5-1.6 3.7.5 7.2.8 10.9.1 1.2 0 2.4-.3 3.6-.3 1.1-.9 2.1-1.3 3.1-.8 2.3-.7 4.8-.2 7.2.4 1.9 1.6 3.8 1.7 5.8.2 3.8-2.4 7.4-1.5 11.3.5 2.1 1.6 4 3.4 5.3 2.7 1.9 6.6 1.4 9.1-.6 3.6-2.8 3.2-7.6 1.7-11.5-.5-1.2-.9-2.6-.9-3.9.1-2.9 1.5-5.6 1.7-8.5.2-3.4-1-5.8-2.2-8.8-.3-.9-.6-1.8-.6-2.7 0-1 .3-2 .5-2.9.8-3.9 1-9.8-3.2-11.9-1-.7-2.1-.8-3.2-.7z" fill="url(#SVGID_36_)"/></g><linearGradient id="SVGID_37_" gradientUnits="userSpaceOnUse" x1="59.086" y1="206.211" x2="5.291" y2="249.101"><stop offset="0" stop-color="#cef4f3"/><stop offset="1" stop-color="#fff"/></linearGradient><path d="M93.6 185.4c.4.4.7.9.8 1.5.5 2.3-1.4 4.7-3 6.2-2.3 2.2-5.3 3.4-8.3 4.4-3.4 1.2-6.7 2.2-9.8 4.1-7.7 4.7-14.5 11.3-23.3 13.9-2.4.7-5.2 1.1-7.3-.5-2.3-1.6-3.1-4.7-1.3-7 6.9-9.2 21-8.8 30.1-14.6 3.2-2 6.1-4.4 9.3-6.4 2.2-1.4 4.7-2.7 7.3-3.1 1.9-.2 4.3.1 5.5 1.5z" fill="url(#SVGID_37_)"/><linearGradient id="SVGID_38_" gradientUnits="userSpaceOnUse" x1="722.879" y1="160.19" x2="673.379" y2="190.69" gradientTransform="matrix(1.0075 .0299 -.02967 .9996 -15.328 -60.377)"><stop offset="0" stop-color="#cef4f3"/><stop offset="1" stop-color="#fff"/></linearGradient><path d="M718.9 116.5c.1.1.2.3.3.5.3.6.1 1.3-.2 1.9-.7 1.5-2.1 2.7-3.4 3.7-1.6 1.3-3.3 2.5-5 3.6-7.7 5-16.4 8.7-24.7 12.7-2 1-4.1 2-6.2 2.8-1.5.6-3.1 1.1-4.7 1.3-1.2.1-2.4.1-3.5-.5-.8-.5-1.8-1.4-2-2.3-.4-2 1.9-3.7 3.3-4.7 6.1-4.5 13.6-7 20.5-10 2.7-1.2 5.1-2.7 7.7-4.1 2.6-1.4 5.1-2.8 7.8-4 1.3-.5 2.6-1 3.9-1.4 1.3-.4 2.8-.7 4.2-.5.7.1 1.5.4 2 1z" fill="url(#SVGID_38_)"/><linearGradient id="SVGID_39_" gradientUnits="userSpaceOnUse" x1="430.397" y1="102.58" x2="389.73" y2="127.913"><stop offset="0" stop-color="#cef4f3"/><stop offset="1" stop-color="#fff"/></linearGradient><path d="M447.2 94.2c.5.5.8 1.2.8 2 .2 2.2-2 4-3.5 5.1-5.3 3.8-11.7 5.3-17.5 8.2-2.7 1.3-5.3 3-7.7 4.7-7.2 5-14 11-22.7 13.2-1.9.5-4.1.9-6.1.3-1.9-.5-3.5-2.4-2.6-4.4.6-1.3 1.8-2.2 2.9-3 3.2-2.3 6.8-3.3 10.3-5 1.9-.9 3.6-2.1 5.2-3.5 2.4-2 4.3-4.7 7.1-6.2 2.5-1.4 5.2-2.1 7.9-3.1 2.5-.9 5-2 7.4-3.4 4.6-2.6 8.6-6.9 14.3-6.8 1.5.1 3.2.8 4.2 1.9z" fill="url(#SVGID_39_)"/><linearGradient id="SVGID_40_" gradientUnits="userSpaceOnUse" x1="471.216" y1="173.864" x2="425.303" y2="202.154"><stop offset="0" stop-color="#cef4f3"/><stop offset="1" stop-color="#fff"/></linearGradient><path d="M481 169.2c3.3 3.6-7.6 10.4-9.6 11.8-4.9 3.3-10.2 6.2-15.6 8.7-4.7 2.2-10.2 4.8-15.5 4.6-1.8-.1-4.9-.9-4.4-3.3.4-2 2.5-3.5 4-4.7 8.1-6.2 18-10.7 27.3-14.8 2.3-1 4.6-2.1 7.1-2.8 2-.6 5-1.3 6.7.4-.1.1 0 .1 0 .1z" fill="url(#SVGID_40_)"/><path class="st58" d="M690.4 145.8c-4.1 1.8-8.1 3.7-11.7 6.3-1.4 1-3.7 2.7-3.3 4.7.2 1 1.1 1.9 2 2.3 1.1.6 2.3.7 3.5.5 1.6-.2 3.2-.7 4.7-1.3 1.6-.6 3.2-1.4 4.8-2.1v-10.4zM457.3 198c-4 2.1-7.8 4.5-11.3 7.2-1.5 1.1-3.6 2.7-4 4.7-.5 2.4 2.6 3.3 4.4 3.3 3.7.1 7.4-1 10.9-2.5V198z"/><path class="st59" d="M436.7 118.2c-1.3.5-2.5 1-3.7 1.6-2.8 1.5-4.7 4.1-7.1 6.2-1.6 1.4-3.3 2.5-5.2 3.5-3.5 1.8-7.1 2.7-10.3 5-1.1.8-2.3 1.7-2.9 3-.9 2 .7 3.9 2.6 4.4 2 .6 4.1.2 6.1-.3 8.7-2.2 15.5-8.2 22.7-13.2 2.5-1.7 5-3.4 7.7-4.7.1-.1.3-.1.4-.2l-10.3-5.3z"/><g><linearGradient id="SVGID_41_" gradientUnits="userSpaceOnUse" x1="565.082" y1="483.896" x2="653.651" y2="675.494"><stop offset="0" stop-color="#1d1d1b"/><stop offset="1" stop-color="#1d1d1b" stop-opacity="0"/></linearGradient><path opacity=".44" fill="url(#SVGID_41_)" d="M562.5 652.5l83.8 45.3 79.3-40.9-84.8-42.9z"/><path class="st7" d="M562.5 551.6l78.3-41.6-88.4-46.5-77.4 41.2z"/><path class="st18" d="M562.5 551.6l-.1 101.1 78.4-41.7V510z"/><path class="st8" d="M475 504.7v101.6l87.4 46.4.1-101.1zm105.4 88.4l4.3-2.3v8.4l-4.3 2.4zm43.6-49.9l4.3-2.2v8.4l-4.3 2.3zm-41.4 76.4V642l22.3 11.6v-22.4z"/><path class="st7" d="M582.6 619.6l43.2-22.8 21.6 11.6-42.5 22.8z"/><path class="st18" d="M647.4 608.4v22.5l-42.5 22.7v-22.4z"/><path class="st8" d="M624.2 626.7l4.3-2.2v8.3l-4.3 2.4z"/><linearGradient id="SVGID_42_" gradientUnits="userSpaceOnUse" x1="590.353" y1="468.154" x2="565.759" y2="487.315"><stop offset="0" stop-color="#cef4f3"/><stop offset="1" stop-color="#fff"/></linearGradient><path d="M599.6 466.9c3.8 4.1-8.7 11.9-11 13.5-5.7 3.8-11.7 7.1-17.9 10-5.4 2.5-11.6 5.5-17.8 5.3-2-.1-5.6-1.1-5.1-3.8.5-2.3 2.8-4 4.5-5.4 9.3-7.1 20.6-12.2 31.3-17 2.7-1.2 5.3-2.4 8.1-3.2 2.3-.7 5.7-1.4 7.7.5.1 0 .2 0 .2.1z" fill="url(#SVGID_42_)"/><path class="st59" d="M579.9 515.8c6.1.2 12.4-2.7 17.8-5.3 6.2-2.9 12.2-6.1 17.9-10 .6-.4 1.7-1.1 3.1-2.1l-12.7-6.6c-9.2 4.2-18.7 8.8-26.6 14.9-1.7 1.3-4.1 3.1-4.5 5.4-.6 2.6 3 3.6 5 3.7z"/></g><linearGradient id="SVGID_43_" gradientUnits="userSpaceOnUse" x1="744.437" y1="185.935" x2="784.785" y2="167.124"><stop offset="0" stop-color="#cef4f3"/><stop offset="1" stop-color="#fff"/></linearGradient><path d="M775.4 170c.1.1.2.3.3.5.3.6.1 1.3-.2 1.9-.7 1.5-2.1 2.7-3.4 3.7-1.6 1.3-3.3 2.5-5 3.6-7.7 5-16.4 8.7-24.7 12.7-2 1-4.1 2-6.2 2.8-1.5.6-3.1 1.1-4.7 1.3-1.2.1-2.4.1-3.5-.5-.8-.5-1.8-1.4-2-2.3-.4-2 1.9-3.7 3.3-4.7 6.1-4.5 13.6-7 20.5-10 2.7-1.2 5.1-2.7 7.7-4.1 2.6-1.4 5.1-2.8 7.8-4 1.3-.5 2.6-1 3.9-1.4 1.3-.4 2.8-.7 4.2-.5.6 0 1.5.3 2 1z" fill="url(#SVGID_43_)"/><linearGradient id="SVGID_44_" gradientUnits="userSpaceOnUse" x1="-6.976" y1="331.021" x2="134.725" y2="250.596"><stop offset="0" stop-color="#cef4f3"/><stop offset="1" stop-color="#fff"/></linearGradient><path d="M52.5 297.5c3.3 3.6-7.6 10.4-9.6 11.8-4.9 3.3-10.2 6.2-15.6 8.7-4.7 2.2-10.2 4.8-15.5 4.6-1.8-.1-4.9-.9-4.4-3.3.4-2 2.5-3.5 4-4.7 8.1-6.2 18-10.7 27.3-14.8 2.3-1 4.6-2.1 7.1-2.8 2-.6 5-1.3 6.7.4v.1z" fill="url(#SVGID_44_)"/><path class="st59" d="M62.8 340.6c3.3 3.6-7.6 10.4-9.6 11.8-4.9 3.3-10.2 6.2-15.6 8.7-4.7 2.2-10.2 4.8-15.5 4.6-1.8-.1-4.9-.9-4.4-3.3.4-2 2.5-3.5 4-4.7 8.1-6.2 18-10.7 27.3-14.8 2.3-1 4.6-2.1 7.1-2.8 2-.6 5-1.3 6.7.4v.1z"/><linearGradient id="SVGID_45_" gradientUnits="userSpaceOnUse" x1="537.956" y1="262.963" x2="520.236" y2="272.667"><stop offset="0" stop-color="#cef4f3"/><stop offset="1" stop-color="#fff"/></linearGradient><path d="M555.9 253.7c.1.1.2.3.3.5.3.6.1 1.3-.2 1.9-.7 1.5-2.1 2.7-3.4 3.7-1.6 1.3-3.3 2.5-5 3.6-7.7 5-16.4 8.7-24.7 12.7-2 1-4.1 2-6.2 2.8-1.5.6-3.1 1.1-4.7 1.3-1.2.1-2.4.1-3.5-.5-.8-.5-1.8-1.4-2-2.3-.4-2 1.9-3.7 3.3-4.7 6.1-4.5 13.6-7 20.5-10 2.7-1.2 5.1-2.7 7.7-4.1 2.6-1.4 5.1-2.8 7.8-4 1.3-.5 2.6-1 3.9-1.4 1.3-.4 2.8-.7 4.2-.5.7.1 1.5.4 2 1z" fill="url(#SVGID_45_)"/><path class="st58" d="M530.9 288.2c-4.3 1.8-8.6 3.7-12.5 6.2v8.8h.3c1.6-.2 3.2-.7 4.7-1.3 2.1-.8 4.1-1.8 6.2-2.8l1.2-.6v-10.3z"/><ellipse class="st66" cx="448.4" cy="410.7" rx="8.5" ry="2.2"/><ellipse class="st66" cx="268.4" cy="358" rx="8.5" ry="2.2"/><ellipse class="st66" cx="575.7" cy="404.1" rx="8.5" ry="2.2"/><ellipse class="st66" cx="488.9" cy="344.7" rx="8.5" ry="2.2"/><ellipse class="st66" cx="431.2" cy="352.6" rx="8.5" ry="2.2"/><ellipse class="st66" cx="420.8" cy="495.3" rx="8.5" ry="2.2"/><ellipse class="st66" cx="385.6" cy="382.1" rx="8.5" ry="2.2"/><ellipse class="st66" cx="461.9" cy="495.9" rx="8.5" ry="2.2"/><ellipse class="st66" cx="347.9" cy="568" rx="8.5" ry="2.2"/><ellipse class="st66" cx="322.9" cy="568.3" rx="8.5" ry="2.2"/><g><path class="st67" d="M319 529.1c1.1.3 2 2.7.3 4.8-.1.7-.1 1.1-.1 1.1s2.4 2 2.4 6.2c.1 4.1.2 8.1.4 14.3.2 6.2-.8 10.9-.8 10.9s3.4 1 3.2 1.6c-.2.6-4.7-.6-5.3-.7.1-9.5-.7-16.2-.7-16.2l-.7.2s.1 9.5-.4 15.6c.9.4 2.7 1.4 2.7 1.9s-4.8-1.2-4.8-1.2-.4-12.1-.8-16.6c-.4-4.5-2.6-11.3 1.1-15.8 2-2.4.1-3.6.8-5.2.9-1.7 2.7-.9 2.7-.9z"/><path class="st67" d="M316.3 534.8c.9-.4 3.1 2.7 6.2 6.5 1.4 1.8 10.7 2.9 10.6 4.1 0 1-6.7.4-8.4 0-3.6-.8-6.4-3.5-7.2-4.6-1.7-2.7-3.4-4.9-1.2-6zm30.6-1.3s-.2-1 0-1.4c.7-1.1 1.1-2.9.1-4-1.1-1.2-2.7-.8-3.2.4-.7 1.8-.1 3.6.6 3.9.1.5 0 .7 0 .7s-1.7.8-2.5 2.6c-.7 1.7-.7 3.7-.8 5.2-.1 1.3-.6 6.2-.5 11 .1 2.6.8 11.7.9 14.1-1.7.7-3.1 1.6-2 1.6s4-.7 4-.7.3-14.1.9-16.8l.5.2s-.3 8.7.8 16.1c-.8.5-2.5 1.1-2.3 1.7s3 .1 4.3-.9c0-4.9.7-16 1-18.9.7-5.2 2.5-12.4-1.8-14.8z"/><path class="st67" d="M345.3 535.6s-2.3 4.6-4.4 6.8c-2.1 2.2-7.7 3.3-9.2 3.3-1.1 0-1.2-.9.3-1.2 2.1-.5 6.3-3 7.3-4.2s1.1-5 3.7-6.5c2.9-1.6 2.6-.4 2.3 1.8z"/><path class="st67" d="M345.8 535.9s3.5 3.5 4.2 5c.9 2.1.7 9 1.7 9 .8 0 .9-6.5.1-10.3-.6-2.6-2.6-4.4-3.6-5.4-1.9-1.5-3.6-.5-2.4 1.7z"/></g><g><path class="st67" d="M425 457.5c-1.5-.7-3.2 1-3.4 3.1-.2 1 .8 2.2.8 2.2l-.6.9s-1.3-.1-3.1 2.2c-1.5 1.9-3.2 4.7-3.2 4.7l-.6-3-1.6-.4s0 6 1.1 7.5c1 1.5 3.2-1.6 3.2-1.6s-3.1 4.6-4.1 9.7c-.8 4.5-.8 9.9-.8 9.9s-3.1 1.3-3.1 2.1c.1.8 4.6-1 4.6-1s1.2-5.9 1.8-8.4c1-3.6 3-6.5 3-6.5l.5.3s-.7 2.7-.2 7.6c.5 4.3 1.6 7.8 1.6 8s-2.5 1.7-2.4 2.3c.1.7 4.3-1.9 4.3-1.9s-.7-7.5-.1-11.9c.6-4.3.8-6.3 2-9.2 1.7-3.7 2.6-6.3.9-8.1-.7-.7-1.6-1.8-.8-3.1 1-1.3 2.7-4.2.2-5.4z"/><path transform="rotate(23.627 418.69 465.4)" class="st11" d="M412.9 461.6h11.6v7.8h-11.6z"/><path class="st67" d="M420.9 458s2.9 1.8 5.8 2.4c.3-1 .8-3.3-1.3-4.2-2-.9-3 .8-3.5 1.4-.8.3-1 .4-1 .4zm-2.2 11.8s-.2-2 .5-1.9 1 2.6 1 2.6l-1.5-.7z"/></g><path class="st67" d="M464.3 462.3c0-1.1.3-1.3.8-2.4.9-2.1-.3-4.2-2-3.9-2.2.3-2.1 4.1-1 5.1 0 .3-.2.9-.2.9-.2 0-4.9 1-8.7 4.1-1.1.8-1.4 1.8.2 3.6 1.1 1.3 3.9 3.1 3.9 3.1s-.4 9.4 0 20.9c-1 .7-3 1.8-2.7 2.4.3.6 4.7-1.5 4.7-1.5l1.6-15.3.7.1s-.2 7.8.1 15.3c-1.7 1.1-2.7 1.9-2.5 2.5.2.6 4.6-1.9 4.6-1.9l1.6-19.5s4.6-2.9 5.3-3.5c.6-.5-2.1-7.1-6.4-10zm-6.9 8.4s-1.6-2.1-2.4-3c.9-.2 2.9-1.4 2.9-1.4-.3 2-.5 4.4-.5 4.4zm8.3 2.5l.2-4.3c.8 1.4 1.8 2.6 1.8 2.6l-2 1.7z"/><g><path class="st67" d="M384.7 342.9c-1.5.6-1.6 4.3.1 4.9-.1.5-.1 1.1-.1 1.1s-2.6.8-2.6 3.9c.1 3.1.5 6.3-.2 7.4-.7 1.1-2.3 3.7-1.1 4.5-.5 2.5-2.4 7.5-1.1 14.8-1.6-.2-2.9-.5-3 .2-.2.6 4.7 1.6 4.7 1.6s-.1-10 3.3-15.1c-.1 2.3-.9 9.9 4 14.5-1.9 1.6-2.3 2.2-1.9 2.8.4.6 4-2.6 4-2.6s-4.3-5.7-2.4-13.5c.4-1.5 1.2-6.6 1.2-6.6s1.6-2.6 1.4-5.6-1.9-5.8-3.3-6.4c0-1.7.4-7.4-3-5.9z"/><path class="st67" d="M382.9 344.3s1.8 1.1 5.4.8c.2-1.7-.1-3.8-2.2-3.9s-2.7 2.1-2.7 2.1l-.8.9.3.1zm69.5 37.4c0-1.6-.5-3.4-1.7-4.4s-.3-1.4.2-2.5.9-4.1-.9-4.4c-1.8-.3-3.1.8-3 2.9 0 1.7.7 2.7.7 2.7s.3.6-1.1 1.2c-1.3.5-2.1 1.7-2.2 4.3 0 2.7-1.4 4-2.2 4.7-.6.5-1.4.7-2.2.7-.4 0-.8 0-1.2.1-.3 0-.5 0-.8.2-.2.1-.3.4-.2.6.1.2.2.4.4.6.3.2.6.4.9.4.5.1 1 .2 1.5.1.7-.1 1.4-.3 2-.7.1-.1.5-.2.6-.3 0 0-4.1 8.8-1.7 20.9-2.4.2-3.4.4-3.5 1-.1.5 5.3.3 5.3.3s.4-11.7 2.6-17.2c.2.1.6.4.6.4s.5 7.7 4.6 14.8c-1.5.5-2.9 1-2.9 1.7s4.8-.6 4.8-.6-3.2-10.4-2.9-15.3c.5-5.1 2.3-6.7 2.3-12.2z"/><path class="st67" d="M446.4 371.6s1.7 1.4 5.5 1.7c.5-1.8.5-4-1.7-4.5-2.1-.5-3.2 1.8-3.2 1.8l-1 .8.4.2z"/><path class="st22" d="M467.6 396l-91.7-42.7-3 2.2 91.4 42.6z"/><path class="st67" d="M382.3 355.9s.1 2.9-.4 4.2c.8.3 1.9.9 1.9.9s1.1-1.2 1.1-4.6c-.7-1.1-2.6-.5-2.6-.5zm57.6 31s1.7 0 3.8-2.6c.6.4 1.9 1 1.8 1s.2 1-2.8 2.9c-1.3-.2-2.8-1.3-2.8-1.3z"/></g><ellipse class="st66" cx="457.4" cy="337.2" rx="8.5" ry="2.2"/><path class="st67" d="M576.1 370.7s-.1-.7.5-1.6c.6-1 1.7-4.7-1.2-5.1-2.6-.4-2.9 4.1-1.6 5v.9s-2.2.1-6.4 2c2.2-1.6 5.6-4.2 5.4-4.7-.2-.6-3.1 1.2-5 2.5s-3.9 2.9-3.1 4.1c.8 1.2 6.3.1 6.3.1s-1.2 14-.2 28.1c-1.4.7-3 1.4-2.9 1.9.1.6 4.8-1.1 4.8-1.1l1-16.2.6.2s-.4 5.4.1 16.1c-1.4.9-2.5 1.6-2.3 1.9.1.3 4.5-1.5 4.5-1.5l1-17.9s.2-5.9.4-8.8c0 1.7 1.2 7.2 3.2 8.2s-.7-3.8-1.2-6.5c-.4-1.5-.2-7.8-3.9-7.6zm-90.4-63.5c-.3.4-.5.9-.6 1.4-.1.6.1 1.6.3 2.1.1.3.4.6.7.9 0 .4-.1.8-.1.8s-1.8.5-6.3 2.4c-.6.2-1.2.1-1.7-.3-2.8-2.6-5.3-4.7-6.4-4.8-1.2-.1-1.2.7-.4 1 .8.3 4 3.7 5 5 1 1.3 2.2 1.6 4.1 1.4 2.3-.3 3.1-1.1 3.1-1.1.1 0 .1 4.3.1 6.1 0 2.7.1 6.7.3 20.6-1.5.8-2.9 1.3-2.9 1.8.1.4 4.9-.9 4.9-.9l.6-13.7 1 .2s-.3 3.8.1 13.7c-1.5 1-2.6 1.8-2.5 2.3.1.5 4.8-2 4.8-2s.5-11.2.8-19.4c-.2 1.7.6 5.2 1.4 5.1.8-.1 0-3.1.1-5.3.1-2.2.4-9.6-3.6-11.6.1-1.9 1.7-5.9-1.2-6.3-.7-.2-1.2.1-1.6.6z"/><g><path class="st67" d="M452.9 296.8c-1.3-.2-2.9.8-2.7 3s1.2 3.3 0 3.7-3.8 2.5-3.3 6.4c.3 2.3.8 5.8 2.2 5.5 0 2.7 1.3 10.7.6 21.5 1.8.9 4.6 1.6 4.7 1.1 0-.4-2-1.8-2-1.8s1-8.5 1.1-15.8h.6l.2 15.8s4 1.8 4.4 1.3c.4-.5-2-1.8-2-1.8s.8-13.8.4-21.6c.6.1 1.9-.7 1-4.2.4-.3.4-.2.4-.3v-6.9l-1.5.7s-2-.9-3.8-.7l-.1-.5s1-1 1-2.3c.3-1.3.1-2.9-1.2-3.1z"/><path class="st22" d="M458.8 302.6c-.1 0-4.6 2.1-4.6 2.1l.2 6.9 4.4-2v-7z"/></g><path class="st67" d="M418.5 328.3c.6.6 5 3.9 5 3.9l-.1 19.5s4.2 2.8 4.5 2.3c.2-.6-.7-1.4-2.3-2.7 1-7.4 1.5-15.2 1.5-15.2l.7-.1.3 15.3s4.1 2.5 4.5 1.9c.4-.5-1.5-1.8-2.4-2.6 1.3-11.4 1.8-20.8 1.8-20.8s2.9-1.5 4.1-2.7c1.7-1.7 1.5-2.7.5-3.6-3.5-3.4-8.2-4.8-8.3-4.8 0 0-.1-.5-.1-.9 1.2-.9 1.6-4.6-.6-5.2-1.7-.4-3 1.5-2.4 3.7.3 1.1.7 1.3.6 2.4-4.8 2.7-8 9-7.3 9.6zm13.1-4.9s1.9 1.3 2.8 1.6c-.9.8-2.6 2.8-2.6 2.8s0-2.4-.2-4.4zm-10.1 4.3s1.1-1.2 2-2.5l-.1 4.3-1.9-1.8zM268 325.8c-.1-1.1.3-1.2.6-2.3.7-2.1-.5-4-2.1-3.6-2.1.4-1.8 4-.7 4.9 0 .3-.1.8-.1.8-.2 0-4.7 1.2-8.1 4.3-1 .8-1.2 1.8.4 3.4 1.1 1.2 3.8 2.7 3.8 2.7s.1 9 1 19.9c-.9.8-2.7 1.9-2.4 2.4.3.5 4.4-1.7 4.4-1.7l.7-14.6.6.1s.2 7.4.9 14.6c-1.6 1.2-2.5 2-2.3 2.5.2.6 4.3-2 4.3-2l.5-18.6s4.3-3 4.9-3.6-2-6.7-6.4-9.2zm-6 8.3s-1.6-2-2.4-2.8c.9-.3 2.7-1.4 2.7-1.4-.3 1.9-.3 4.2-.3 4.2zm7.9 1.9v-4.1c.8 1.2 1.8 2.4 1.8 2.4l-1.8 1.7z"/></svg>